<?xml version="1.0" encoding="UTF-8"?>
<svg width="150px" height="130px" viewBox="0 0 150 130" version="1.1" xmlns="http://www.w3.org/2000/svg" xmlns:xlink="http://www.w3.org/1999/xlink">
    <title>Capital</title>
    <defs>
        <filter id="filter-1">
            <feColorMatrix in="SourceGraphic" type="matrix" values="0 0 0 0 1.000000 0 0 0 0 1.000000 0 0 0 0 1.000000 0 0 0 1.000000 0"></feColorMatrix>
        </filter>
    </defs>
    <g id="Page-1" stroke="none" stroke-width="1" fill="none" fill-rule="evenodd">
        <g id="Home-v4" transform="translate(-634.000000, -3581.000000)">
            <g id="Capital" transform="translate(634.000000, 3581.000000)">
                <rect id="Rectangle" x="0" y="0" width="150" height="130"></rect>
                <g filter="url(#filter-1)" id="Too-Much-Money">
                    <g transform="translate(25.000000, 14.000000)">
                        <path d="M99.2635088,91.4093557 L96.5709278,89.0900616 C104.828,72.4980655 95.1349152,56.4404478 81.8523731,34.1392795 C80.2369164,31.2846934 78.4417858,28.4301073 76.6468849,25.3971667 C78.4419007,25.218755 79.8779132,23.6130504 79.8779132,21.8289341 L79.8779132,20.0448177 C79.8779132,18.7958792 79.1599069,17.7255236 78.0828975,17.0118771 C79.5189101,13.26529 79.5189101,8.98341085 78.2623991,3.63071938 C77.7238944,2.0250718 76.6469424,0.954487836 75.2109298,0.776133297 C73.7749172,0.419310036 72.5183487,0.954544927 71.6208983,2.20342634 L69.8258825,4.52272044 L67.3128605,1.3113111 C66.4153526,0.062372592 65.1588416,-0.294336485 63.722829,0.240841314 C62.1073723,0.597664575 61.5688101,2.02495762 61.5688101,3.63071938 L61.5688101,5.05801243 L58.3377818,4.16595427 C56.7223251,3.63071938 54.9271945,4.34436591 54.2091882,5.77160186 C53.3116803,7.1988949 53.4911819,8.9830112 54.7476929,10.053481 C57.0811559,12.3727751 57.9787212,14.3353601 57.7991622,16.2979451 C56.0041465,16.4763568 54.5681339,17.9035927 54.5681339,19.8661778 L54.5681339,21.6502941 C54.5681339,22.8992326 55.2861402,24.1480569 56.3631496,24.6832347 C53.4911244,28.9651138 50.2600961,32.711701 47.2085119,36.4578314 C39.8490048,45.1999442 32.6691716,53.5853479 32.4899572,66.2528591 L19.027052,66.2528591 L14.5395701,84.0940221 L4.48748191,84.0940221 L0,101.935185 L93.8796104,101.935185 C96.2130734,101.935185 98.5466513,100.686247 99.8031049,98.7237758 L99.9826065,98.3669526 C101.598063,96.226013 101.239175,93.1930724 99.2646002,91.4088419 L99.2635088,91.4093557 Z M75.9288786,21.6501228 L57.9787212,21.6501228 L57.9787212,19.8660065 L75.9288786,19.8660065 L75.9288786,21.6501228 Z M57.0815005,7.55531852 L59.9535257,8.44737667 C61.0305352,8.80419993 62.4665478,8.6257883 63.3641131,7.91214178 C64.2616784,7.19849526 65.1591288,6.12802548 65.1591288,5.05755569 L65.1591288,3.63026265 L67.3131477,6.841672 C68.031154,7.73373015 68.9286044,8.26896504 70.0057288,8.26896504 C71.0828531,8.26896504 72.1597476,7.73373015 72.6983098,6.841672 L74.4933255,4.52237789 C75.570335,9.33954901 75.3908334,13.4429594 74.1343224,16.4762426 L61.2102091,16.4762426 C61.3897106,12.5511867 59.0561902,9.69660063 57.0815005,7.55566107 L57.0815005,7.55531852 Z M21.7199777,69.8206921 L36.7981099,69.8206921 L39.4906909,80.5253899 L19.0280859,80.5253899 L21.7199777,69.8206921 Z M4.66704092,98.3665529 L7.35962198,87.6618551 L22.4377542,87.6618551 L25.1303352,98.3665529 L4.66704092,98.3665529 Z M29.2584694,99.9722005 L25.3094347,84.0938509 L33.207504,84.0938509 L29.2584694,99.9722005 Z M33.387063,98.3665529 L36.0796441,87.6618551 L51.1577763,87.6618551 L53.8503573,98.3665529 L33.387063,98.3665529 Z M97.110409,96.4039679 L96.9309074,96.7607912 C96.2129011,97.831261 95.1358917,98.3664388 93.8794381,98.3664388 L57.6206946,98.3664388 L54.0306631,84.0935083 L44.1580191,84.0935083 L39.6705371,66.2523453 L35.9010615,66.2523453 C36.0805631,55.0123555 42.3631182,47.5194095 49.7223955,38.7775251 C53.312427,34.6740005 56.9024585,30.2137669 60.1334868,25.2182412 L72.1603795,25.2182412 C74.3143984,28.9648284 76.4684173,32.3547064 78.442992,35.7445845 C91.187891,56.975854 100.521973,72.4979513 93.1615467,87.3052602 C92.4435404,88.7325533 92.8025435,90.5166696 94.0590546,91.5871393 L96.9310797,93.9064335 C97.4695845,94.62008 97.649086,95.6905498 97.1105813,96.4041963 L97.110409,96.4039679 Z" id="Shape" fill="#000000" fill-rule="nonzero"></path>
                        <path d="M77.4018692,73.1243565 C77.4018692,70.2298929 75.5926791,67.5162754 73.0598131,65.8881975 C71.6124611,64.9836777 70.165109,64.4409657 68.355919,64.2601197 L68.355919,53.4058812 C70.7078081,53.9485931 72.517114,55.2149209 73.4216511,57.0239607 L77.2208923,57.0239607 C76.3162972,53.4058812 72.8788362,50.3305715 68.355919,49.7878017 L68.355919,44.3606824 L64.7375389,44.3606824 L64.7375389,49.7878017 C59.6718069,50.5114176 55.6915888,54.3103432 55.6915888,58.6520385 C55.6915888,61.5465021 57.5007788,64.2601197 60.0336449,65.8881975 C61.3001358,66.7927174 62.9283489,67.3354293 64.7375389,67.5162754 L64.7375389,78.3705139 C62.3856498,77.827802 60.576344,76.9232821 59.6718069,75.1142424 L55.8725657,75.1142424 C56.7771607,78.7323218 60.2146218,81.4459394 64.7375389,81.9885934 L64.7375389,87.7775206 L68.355919,87.7775206 L68.355919,81.9885934 C73.4216511,81.2649775 77.4018692,77.646898 77.4018692,73.1243565 Z M59.3099688,58.6520385 C59.3099688,56.1193829 61.661858,53.9485352 64.7375389,53.4058812 L64.7375389,63.8983117 C61.6619738,63.3555998 59.3099688,61.1846942 59.3099688,58.6521543 L59.3099688,58.6520385 Z M68.355919,78.3702823 L68.355919,67.8778518 C71.4314842,68.4205637 73.7834891,70.5914693 73.7834891,73.1240092 C73.7834891,75.6565491 71.4316,77.8275125 68.355919,78.3701666 L68.355919,78.3702823 Z" id="Shape" fill="#000000" fill-rule="nonzero"></path>
                    </g>
                </g>
            </g>
        </g>
    </g>
</svg>