<?xml version="1.0" encoding="UTF-8"?>
<svg width="150px" height="130px" viewBox="0 0 150 130" version="1.1" xmlns="http://www.w3.org/2000/svg" xmlns:xlink="http://www.w3.org/1999/xlink">
    <title>Influence</title>
    <defs>
        <filter id="filter-1">
            <feColorMatrix in="SourceGraphic" type="matrix" values="0 0 0 0 1.000000 0 0 0 0 1.000000 0 0 0 0 1.000000 0 0 0 1.000000 0"></feColorMatrix>
        </filter>
    </defs>
    <g id="Page-1" stroke="none" stroke-width="1" fill="none" fill-rule="evenodd">
        <g id="Home-v4" transform="translate(-1064.000000, -3581.000000)">
            <g id="Influence" transform="translate(1064.000000, 3581.000000)">
                <rect id="Rectangle" x="0" y="0" width="150" height="130"></rect>
                <g filter="url(#filter-1)" id="np_influencer_3201930_000000">
                    <g transform="translate(21.000000, 11.000000)">
                        <path d="M99.7354285,45.7354285 C95.8884091,45.7354285 92.7178782,48.3399549 91.8113654,51.846466 L81.5082721,51.846466 C81.0572344,45.8459126 78.6782495,40.4109109 74.9417141,36.1138046 L82.2997728,28.755746 C83.5467939,29.4367173 84.9042991,29.887755 86.3768165,29.887755 C90.9048525,29.887755 94.6413879,26.1512196 94.6413879,21.6231835 C94.6413879,17.0951475 90.9048525,13.3586121 86.3768165,13.3586121 C81.8487804,13.3586121 78.112245,17.0951475 78.112245,21.6231835 C78.112245,23.0957009 78.5632827,24.5682182 79.244254,25.7002272 L71.8861954,33.0582859 C67.5836555,29.3217505 62.1491066,27.0577325 56.153534,26.4917279 L56.153534,16.1886346 C59.6645731,15.2821444 62.2645715,12.1115909 62.2645715,8.26457147 C62.2645715,3.73653538 58.5280361,0 54,0 C49.4719639,0 45.7354285,3.73653538 45.7354285,8.26457147 C45.7354285,12.1115909 48.3399549,15.2821218 51.846466,16.1886346 L51.846466,26.4917279 C45.8459126,26.9427656 40.4109109,29.3217505 36.1138046,33.0582859 L28.755746,25.7002272 C29.4367173,24.4532061 29.887755,23.0957009 29.887755,21.6231835 C29.887755,17.0951475 26.1512196,13.3586121 21.6231835,13.3586121 C17.0951475,13.3586121 13.3586121,17.0951475 13.3586121,21.6231835 C13.3586121,26.1512196 17.0951475,29.887755 21.6231835,29.887755 C23.0957009,29.887755 24.5682182,29.4367173 25.7002272,28.755746 L33.0582859,36.1138046 C29.3217505,40.4163445 26.9472484,45.8508934 26.4917279,51.846466 L16.1886346,51.846466 C15.2821444,48.3354269 12.1115909,45.7354285 8.26457147,45.7354285 C3.73653538,45.7354285 0,49.4719639 0,54 C0,58.5280361 3.73653538,62.2645715 8.26457147,62.2645715 C12.1115909,62.2645715 15.2821218,59.6600451 16.1886346,56.153534 L26.4917279,56.153534 C26.9427656,62.1540874 29.3217505,67.5890891 33.0582859,71.8861954 L25.7002272,79.244254 C24.4532061,78.5632827 23.0957009,78.112245 21.6231835,78.112245 C17.0951475,78.112245 13.3586121,81.8487804 13.3586121,86.3768165 C13.3586121,90.9048525 17.0951475,94.6413879 21.6231835,94.6413879 C26.1512196,94.6413879 29.887755,90.9048525 29.887755,86.3768165 C29.887755,84.9042991 29.4367173,83.4317818 28.755746,82.2997728 L36.1138046,74.9417141 C40.4163445,78.6782495 45.8508934,80.9422675 51.846466,81.5082721 L51.846466,91.8113654 C48.3354269,92.7178556 45.7354285,95.8884091 45.7354285,99.7354285 C45.7354285,104.263465 49.4719639,108 54,108 C58.5280361,108 62.2645715,104.263465 62.2645715,99.7354285 C62.2645715,95.8884091 59.6600451,92.7178782 56.153534,91.8113654 L56.153534,81.5082721 C62.1540874,81.0572344 67.5890891,78.6782495 71.8861954,74.9417141 L79.244254,82.2997728 C78.5632827,83.5467939 78.112245,84.9042991 78.112245,86.3768165 C78.112245,90.9048525 81.8487804,94.6413879 86.3768165,94.6413879 C90.9048525,94.6413879 94.6413879,90.9048525 94.6413879,86.3768165 C94.6413879,81.8487804 90.9048525,78.112245 86.3768165,78.112245 C84.9042991,78.112245 83.4317818,78.5632827 82.2997728,79.244254 L74.9417141,71.8861954 C78.6782495,67.5836555 81.0527516,62.1491066 81.5082721,56.153534 L91.8113654,56.153534 C92.7178556,59.6645731 95.8884091,62.2645715 99.7354285,62.2645715 C104.263465,62.2645715 108,58.5280361 108,54 C108,49.4719639 104.263465,45.7354285 99.7354285,45.7354285 Z M86.492055,17.7759377 C88.756073,17.7759377 90.4540866,19.5889633 90.4540866,21.7379693 C90.4540866,23.8869752 88.6410609,25.7000008 86.492055,25.7000008 C84.2280369,25.7000008 82.5300234,23.8869752 82.5300234,21.7379693 C82.5300234,19.5889633 84.2280369,17.7759377 86.492055,17.7759377 Z M50.2677663,8.4943693 C50.2677663,6.23035126 52.0807919,4.53233772 54.2297978,4.53233772 C56.3788038,4.53233772 58.1918294,6.34536337 58.1918294,8.4943693 C58.1918294,10.6433752 56.4938159,12.4564009 54.2297978,12.4564009 C51.9657798,12.4564009 50.2677663,10.6433752 50.2677663,8.4943693 Z M18.0055091,21.7377429 C18.0055091,19.4737248 19.8185348,17.7757113 21.9675407,17.7757113 C24.1165466,17.7757113 25.9295723,19.5887369 25.9295723,21.7377429 C25.9295723,23.8867488 24.1165466,25.6997744 21.9675407,25.6997744 C19.8185348,25.6997744 18.0055091,24.0017609 18.0055091,21.7377429 Z M8.72394073,57.9620316 C6.45992269,57.9620316 4.76190915,56.1490059 4.76190915,54 C4.76190915,51.8509941 6.5749348,50.0379684 8.72394073,50.0379684 C10.8729467,50.0379684 12.6859723,51.8509941 12.6859723,54 C12.6859723,56.1490059 10.8729467,57.9620316 8.72394073,57.9620316 Z M21.9673143,90.2242887 C19.7032962,90.2242887 18.0052827,88.4112631 18.0052827,86.2622571 C18.0052827,83.9982391 19.8183084,82.3002256 21.9673143,82.3002256 C24.1163202,82.3002256 25.9293459,84.1132512 25.9293459,86.2622571 C26.0443127,88.4112631 24.2313323,90.2242887 21.9673143,90.2242887 Z M58.191603,99.5058571 C58.191603,101.769875 56.3785774,103.467889 54.2295714,103.467889 C52.0805655,103.467889 50.2675399,101.654863 50.2675399,99.5058571 C50.2675399,97.3568512 52.0805655,95.5438255 54.2295714,95.5438255 C56.3785774,95.5438255 58.191603,97.3568512 58.191603,99.5058571 Z M90.4538602,86.2624835 C90.4538602,88.5265016 88.6408345,90.2245151 86.4918286,90.2245151 C84.2278105,90.2245151 82.529797,88.4114895 82.529797,86.2624835 C82.529797,83.9984655 84.3428226,82.300452 86.4918286,82.300452 C88.6408345,82.1854851 90.4538602,83.9984655 90.4538602,86.2624835 Z M54.2295714,77.2064114 C41.4367375,77.2064114 31.0233865,66.792834 31.0233865,54.0002264 C31.0233865,41.2076188 41.4369639,30.7940414 54.2295714,30.7940414 C67.022179,30.7940414 77.4357564,41.2076188 77.4357564,54.0002264 C77.4357564,66.792834 67.022179,77.2064114 54.2295714,77.2064114 Z M99.7352021,57.962258 C97.4711841,57.962258 95.7731705,56.1492323 95.7731705,54.0002264 C95.7731705,51.8512205 97.5861962,50.0381948 99.7352021,50.0381948 C101.884208,50.0381948 103.697234,51.8512205 103.697234,54.0002264 C103.697234,56.1492323 101.99922,57.962258 99.7352021,57.962258 Z" id="Shape" fill="#000000" fill-rule="nonzero"></path>
                        <path d="M61.1960516,51.4222178 C62.4466005,49.846689 63.351137,47.9277526 63.351137,45.7888911 C63.351137,40.9433287 59.3778969,37 54.4955794,37 C49.6132619,37 45.6400217,40.9433287 45.6400217,45.7888911 C45.6400217,47.9277526 46.4337843,49.846689 47.7951072,51.4222178 C45.1832126,52.7733149 43.2542613,55.3655466 42.8019931,58.4066417 L42.0126692,65.5055347 C41.8973771,66.517776 42.5802749,67.5344337 43.6001489,67.7588654 C47.1211208,68.6610765 50.7528893,69 54.5,69 C58.2471014,69 61.8788699,68.5510915 65.3998418,67.7588654 C66.4197612,67.5344112 67.102659,66.5177309 66.9873215,65.5055347 L66.0782669,58.4066417 C65.736818,55.3655466 63.8078439,52.8877841 61.1959494,51.4222178 L61.1960516,51.4222178 Z M54.5001202,41.2822297 C56.9966773,41.2822297 59.0409661,43.3111286 59.0409661,45.7888911 C59.0409661,48.2666535 56.9966773,50.2955525 54.5001202,50.2955525 C52.0035632,50.2955525 49.9592743,48.2666535 49.9592743,45.7888911 C49.9592743,43.3111286 52.0035632,41.2822297 54.5001202,41.2822297 Z M46.4383024,64.154663 L47.1212003,58.9701997 C47.4626492,56.4924373 49.5069607,54.5780075 52.1143144,54.5780075 L57.1074285,54.5780075 C59.6039856,54.5780075 61.7636119,56.4924373 62.1005426,58.9701997 L62.7834405,64.154663 C57.3379446,65.1669042 51.6618872,65.1669042 46.4386657,64.154663 L46.4383024,64.154663 Z" id="Shape" fill="#000000" fill-rule="nonzero"></path>
                    </g>
                </g>
            </g>
        </g>
    </g>
</svg>