<?xml version="1.0" encoding="UTF-8"?>
<svg width="150px" height="130px" viewBox="0 0 150 130" version="1.1" xmlns="http://www.w3.org/2000/svg" xmlns:xlink="http://www.w3.org/1999/xlink">
    <title>Group 8</title>
    <defs>
        <filter id="filter-1">
            <feColorMatrix in="SourceGraphic" type="matrix" values="0 0 0 0 1.000000 0 0 0 0 1.000000 0 0 0 0 1.000000 0 0 0 1.000000 0"></feColorMatrix>
        </filter>
    </defs>
    <g id="Page-1" stroke="none" stroke-width="1" fill="none" fill-rule="evenodd">
        <g id="Home-v4" transform="translate(-204.000000, -3581.000000)">
            <g id="Group-8" transform="translate(204.000000, 3581.000000)">
                <rect id="Rectangle" x="0" y="0" width="150" height="130"></rect>
                <g filter="url(#filter-1)" id="People-First">
                    <g transform="translate(24.000000, 20.000000)">
                        <path d="M17.8335,62.596125 C23.9990625,62.596125 29.017575,57.5776125 29.017575,51.41205 C29.017575,45.2464875 23.9990625,40.227975 17.8335,40.227975 C11.6679375,40.227975 6.649425,45.2464875 6.649425,51.41205 C6.649425,57.5776125 11.66355,62.596125 17.8335,62.596125 L17.8335,62.596125 Z M17.8335,43.59825 C22.1401125,43.59825 25.642575,47.1007125 25.642575,51.407325 C25.642575,55.7139375 22.1401125,59.2164 17.8335,59.2164 C13.5268875,59.2164 10.024425,55.7139375 10.024425,51.407325 C10.024425,47.1007125 13.5268875,43.59825 17.8335,43.59825 L17.8335,43.59825 Z" id="Shape" fill="#000000" fill-rule="nonzero"></path>
                        <path d="M17.8335,65.662875 C7.998525,65.662875 0,73.66095 0,83.496375 C0,86.5198125 2.4609375,88.9851375 5.4887625,88.9851375 L30.1813875,88.9851375 C33.204825,88.9851375 35.6657625,86.5242 35.6657625,83.496375 C35.6657625,73.6614 27.6633,65.662875 17.8322625,65.662875 L17.8335,65.662875 Z M30.178125,85.60575 L5.49,85.60575 C4.3254,85.60575 3.3762375,84.66093 3.3762375,83.496375 C3.3762375,75.5247375 9.8625375,69.037875 17.8347375,69.037875 C25.806375,69.037875 32.2932375,75.524175 32.2932375,83.496375 C32.2932375,84.660975 31.3440188,85.60575 30.179475,85.60575 L30.178125,85.60575 Z" id="Shape" fill="#000000" fill-rule="nonzero"></path>
                        <path d="M50.625,41.73075 C56.7905625,41.73075 61.809075,36.7122375 61.809075,30.546675 C61.809075,24.3811125 56.7905625,19.3626 50.625,19.3626 C44.4594375,19.3626 39.440925,24.3811125 39.440925,30.546675 C39.440925,36.7122375 44.4594375,41.73075 50.625,41.73075 Z M50.625,22.732875 C54.9316125,22.732875 58.434075,26.2353375 58.434075,30.54195 C58.434075,34.8485625 54.9316125,38.351025 50.625,38.351025 C46.3183875,38.351025 42.815925,34.8485625 42.815925,30.54195 C42.815925,26.2353375 46.3183875,22.732875 50.625,22.732875 Z" id="Shape" fill="#000000" fill-rule="nonzero"></path>
                        <path d="M68.4585,62.631 C68.4585,52.8004125 60.460425,44.7975 50.625,44.7975 C40.7944125,44.7975 32.7915,52.795575 32.7915,62.631 C32.7915,65.6544375 35.2524375,68.1197625 38.275875,68.1197625 L62.9685,68.1197625 C65.996325,68.1197625 68.4572625,65.6544375 68.4572625,62.631 L68.4585,62.631 Z M62.974125,64.7447625 L38.277,64.7447625 C37.1124,64.7447625 36.167625,63.7955438 36.167625,62.631 C36.167625,54.6593625 42.653925,48.1725 50.626125,48.1725 C58.598325,48.1725 65.084625,54.6588 65.084625,62.631 C65.084625,63.7956 64.1354063,64.7447625 62.97525,64.7447625 L62.974125,64.7447625 Z" id="Shape" fill="#000000" fill-rule="nonzero"></path>
                        <path d="M83.4165,62.596125 C89.5820625,62.596125 94.600575,57.5776125 94.600575,51.41205 C94.600575,45.2464875 89.5820625,40.227975 83.4165,40.227975 C77.2509375,40.227975 72.232425,45.2464875 72.232425,51.41205 C72.232425,57.5776125 77.2509375,62.596125 83.4165,62.596125 Z M83.4165,43.59825 C87.7231125,43.59825 91.225575,47.1007125 91.225575,51.407325 C91.225575,55.7139375 87.7231125,59.2164 83.4165,59.2164 C79.1098875,59.2164 75.607425,55.7139375 75.607425,51.407325 C75.607425,47.1007125 79.1098875,43.59825 83.4165,43.59825 Z" id="Shape" fill="#000000" fill-rule="nonzero"></path>
                        <path d="M83.4165,65.662875 C73.5859125,65.662875 65.583,73.66095 65.583,83.496375 C65.583,86.5198125 68.0439375,88.9851375 71.067375,88.9851375 L95.76,88.9851375 C98.7834375,88.9851375 101.248762,86.5242 101.248762,83.496375 C101.248762,73.6614 93.2506875,65.662875 83.4152625,65.662875 L83.4165,65.662875 Z M95.761125,85.60575 L71.073,85.60575 C69.9084,85.60575 68.963625,84.6565313 68.963625,83.4919875 C68.963625,75.52035 75.449925,69.0334875 83.422125,69.0334875 C91.389375,69.0378829 97.876125,75.524175 97.876125,83.4953625 C97.876125,84.6599625 96.9269063,85.6047375 95.7623625,85.6047375 L95.761125,85.60575 Z" id="Shape" fill="#000000" fill-rule="nonzero"></path>
                        <path d="M50.625,13.1355 C51.556635,13.1355 52.3125,12.379635 52.3125,11.448 L52.3125,2.7073125 C52.3125,1.7756775 51.556635,1.0198125 50.625,1.0198125 C49.693365,1.0198125 48.9375,1.7756775 48.9375,2.7073125 L48.9375,11.448 C48.9375,12.379635 49.693365,13.1355 50.625,13.1355 Z" id="Path" fill="#000000" fill-rule="nonzero"></path>
                        <path d="M76.645125,23.91525 C77.0757863,23.91525 77.5108463,23.7526538 77.8404375,23.4230625 L84.02355,17.23995 C84.6827325,16.5807675 84.6827325,15.51285 84.02355,14.8537125 C83.3643675,14.194575 82.29645,14.19453 81.6373125,14.8537125 L75.4542,21.036825 C74.7950175,21.6960075 74.7950175,22.763925 75.4542,23.4230625 C75.7793925,23.748255 76.2144525,23.91525 76.645125,23.91525 L76.645125,23.91525 Z" id="Path" fill="#000000" fill-rule="nonzero"></path>
                        <path d="M23.4135,23.418 C23.7430913,23.7475913 24.1737525,23.9101875 24.6088125,23.9101875 C25.0394738,23.9101875 25.4745338,23.7475913 25.804125,23.418 C26.4633075,22.7588175 26.4633075,21.6909 25.804125,21.0317625 L19.6210125,14.84865 C18.96183,14.1894675 17.8939125,14.1894675 17.234775,14.84865 C16.5755925,15.5078325 16.5755925,16.57575 17.234775,17.2348875 L23.4135,23.418 Z" id="Path" fill="#000000" fill-rule="nonzero"></path>
                        <path d="M34.98525,14.89275 C35.253315,15.543135 35.88174,15.9342525 36.5452875,15.9342525 C36.7606237,15.9342525 36.9803475,15.894702 37.191285,15.8068125 C38.0526075,15.4508513 38.4612975,14.4621 38.1053475,13.6008 L34.76106,5.5236375 C34.4050987,4.662315 33.4163475,4.253625 32.5550475,4.609575 C31.6937475,4.965525 31.285035,5.9542875 31.640985,6.8155875 L34.98525,14.89275 Z" id="Path" fill="#000000" fill-rule="nonzero"></path>
                        <path d="M64.058625,15.807375 C64.2695625,15.8952656 64.4892863,15.934815 64.7046225,15.934815 C65.3681925,15.934815 65.9965725,15.5436975 66.26466,14.8933125 L69.6089475,6.81615 C69.9649088,5.9548275 69.5562131,4.9660875 68.694885,4.6101375 C67.8335569,4.2541875 66.8448225,4.66287187 66.4888725,5.5242 L63.144585,13.6013625 C62.7886238,14.462685 63.2017148,15.451425 64.0586475,15.807375 L64.058625,15.807375 Z" id="Path" fill="#000000" fill-rule="nonzero"></path>
                    </g>
                </g>
            </g>
        </g>
    </g>
</svg>